%TF.GenerationSoftware,KiCad,Pcbnew,9.0.6*%
%TF.CreationDate,2026-01-09T13:31:14-03:00*%
%TF.ProjectId,KeyFlow Board,4b657946-6c6f-4772-9042-6f6172642e6b,rev?*%
%TF.SameCoordinates,Original*%
%TF.FileFunction,AssemblyDrawing,Top*%
%FSLAX46Y46*%
G04 Gerber Fmt 4.6, Leading zero omitted, Abs format (unit mm)*
G04 Created by KiCad (PCBNEW 9.0.6) date 2026-01-09 13:31:14*
%MOMM*%
%LPD*%
G01*
G04 APERTURE LIST*
%ADD10C,0.101600*%
%ADD11C,0.150000*%
%ADD12C,0.504000*%
%ADD13C,0.100000*%
G04 APERTURE END LIST*
D10*
X136652476Y-70065479D02*
X137075809Y-70700479D01*
X137075809Y-70065479D02*
X136652476Y-70700479D01*
X137317714Y-70700479D02*
X137317714Y-70065479D01*
X137589857Y-70519050D02*
X137892238Y-70519050D01*
X137529381Y-70700479D02*
X137741047Y-70065479D01*
X137741047Y-70065479D02*
X137952714Y-70700479D01*
X138285333Y-70065479D02*
X138406286Y-70065479D01*
X138406286Y-70065479D02*
X138466762Y-70095717D01*
X138466762Y-70095717D02*
X138527238Y-70156193D01*
X138527238Y-70156193D02*
X138557476Y-70277145D01*
X138557476Y-70277145D02*
X138557476Y-70488812D01*
X138557476Y-70488812D02*
X138527238Y-70609764D01*
X138527238Y-70609764D02*
X138466762Y-70670241D01*
X138466762Y-70670241D02*
X138406286Y-70700479D01*
X138406286Y-70700479D02*
X138285333Y-70700479D01*
X138285333Y-70700479D02*
X138224857Y-70670241D01*
X138224857Y-70670241D02*
X138164381Y-70609764D01*
X138164381Y-70609764D02*
X138134143Y-70488812D01*
X138134143Y-70488812D02*
X138134143Y-70277145D01*
X138134143Y-70277145D02*
X138164381Y-70156193D01*
X138164381Y-70156193D02*
X138224857Y-70095717D01*
X138224857Y-70095717D02*
X138285333Y-70065479D01*
X138829619Y-70458574D02*
X139313429Y-70458574D01*
X139978666Y-70700479D02*
X139766999Y-70398098D01*
X139615809Y-70700479D02*
X139615809Y-70065479D01*
X139615809Y-70065479D02*
X139857714Y-70065479D01*
X139857714Y-70065479D02*
X139918190Y-70095717D01*
X139918190Y-70095717D02*
X139948428Y-70125955D01*
X139948428Y-70125955D02*
X139978666Y-70186431D01*
X139978666Y-70186431D02*
X139978666Y-70277145D01*
X139978666Y-70277145D02*
X139948428Y-70337621D01*
X139948428Y-70337621D02*
X139918190Y-70367860D01*
X139918190Y-70367860D02*
X139857714Y-70398098D01*
X139857714Y-70398098D02*
X139615809Y-70398098D01*
X140250809Y-70700479D02*
X140250809Y-70065479D01*
X140250809Y-70065479D02*
X140492714Y-70065479D01*
X140492714Y-70065479D02*
X140553190Y-70095717D01*
X140553190Y-70095717D02*
X140583428Y-70125955D01*
X140583428Y-70125955D02*
X140613666Y-70186431D01*
X140613666Y-70186431D02*
X140613666Y-70277145D01*
X140613666Y-70277145D02*
X140583428Y-70337621D01*
X140583428Y-70337621D02*
X140553190Y-70367860D01*
X140553190Y-70367860D02*
X140492714Y-70398098D01*
X140492714Y-70398098D02*
X140250809Y-70398098D01*
X140855571Y-70125955D02*
X140885809Y-70095717D01*
X140885809Y-70095717D02*
X140946285Y-70065479D01*
X140946285Y-70065479D02*
X141097476Y-70065479D01*
X141097476Y-70065479D02*
X141157952Y-70095717D01*
X141157952Y-70095717D02*
X141188190Y-70125955D01*
X141188190Y-70125955D02*
X141218428Y-70186431D01*
X141218428Y-70186431D02*
X141218428Y-70246907D01*
X141218428Y-70246907D02*
X141188190Y-70337621D01*
X141188190Y-70337621D02*
X140825333Y-70700479D01*
X140825333Y-70700479D02*
X141218428Y-70700479D01*
X141611523Y-70065479D02*
X141672000Y-70065479D01*
X141672000Y-70065479D02*
X141732476Y-70095717D01*
X141732476Y-70095717D02*
X141762714Y-70125955D01*
X141762714Y-70125955D02*
X141792952Y-70186431D01*
X141792952Y-70186431D02*
X141823190Y-70307383D01*
X141823190Y-70307383D02*
X141823190Y-70458574D01*
X141823190Y-70458574D02*
X141792952Y-70579526D01*
X141792952Y-70579526D02*
X141762714Y-70640002D01*
X141762714Y-70640002D02*
X141732476Y-70670241D01*
X141732476Y-70670241D02*
X141672000Y-70700479D01*
X141672000Y-70700479D02*
X141611523Y-70700479D01*
X141611523Y-70700479D02*
X141551047Y-70670241D01*
X141551047Y-70670241D02*
X141520809Y-70640002D01*
X141520809Y-70640002D02*
X141490571Y-70579526D01*
X141490571Y-70579526D02*
X141460333Y-70458574D01*
X141460333Y-70458574D02*
X141460333Y-70307383D01*
X141460333Y-70307383D02*
X141490571Y-70186431D01*
X141490571Y-70186431D02*
X141520809Y-70125955D01*
X141520809Y-70125955D02*
X141551047Y-70095717D01*
X141551047Y-70095717D02*
X141611523Y-70065479D01*
X142367476Y-70277145D02*
X142367476Y-70700479D01*
X142216285Y-70035241D02*
X142065095Y-70488812D01*
X142065095Y-70488812D02*
X142458190Y-70488812D01*
X142821047Y-70065479D02*
X142881524Y-70065479D01*
X142881524Y-70065479D02*
X142942000Y-70095717D01*
X142942000Y-70095717D02*
X142972238Y-70125955D01*
X142972238Y-70125955D02*
X143002476Y-70186431D01*
X143002476Y-70186431D02*
X143032714Y-70307383D01*
X143032714Y-70307383D02*
X143032714Y-70458574D01*
X143032714Y-70458574D02*
X143002476Y-70579526D01*
X143002476Y-70579526D02*
X142972238Y-70640002D01*
X142972238Y-70640002D02*
X142942000Y-70670241D01*
X142942000Y-70670241D02*
X142881524Y-70700479D01*
X142881524Y-70700479D02*
X142821047Y-70700479D01*
X142821047Y-70700479D02*
X142760571Y-70670241D01*
X142760571Y-70670241D02*
X142730333Y-70640002D01*
X142730333Y-70640002D02*
X142700095Y-70579526D01*
X142700095Y-70579526D02*
X142669857Y-70458574D01*
X142669857Y-70458574D02*
X142669857Y-70307383D01*
X142669857Y-70307383D02*
X142700095Y-70186431D01*
X142700095Y-70186431D02*
X142730333Y-70125955D01*
X142730333Y-70125955D02*
X142760571Y-70095717D01*
X142760571Y-70095717D02*
X142821047Y-70065479D01*
X143304857Y-70458574D02*
X143788667Y-70458574D01*
X144091047Y-70700479D02*
X144091047Y-70065479D01*
X144091047Y-70065479D02*
X144242237Y-70065479D01*
X144242237Y-70065479D02*
X144332952Y-70095717D01*
X144332952Y-70095717D02*
X144393428Y-70156193D01*
X144393428Y-70156193D02*
X144423666Y-70216669D01*
X144423666Y-70216669D02*
X144453904Y-70337621D01*
X144453904Y-70337621D02*
X144453904Y-70428336D01*
X144453904Y-70428336D02*
X144423666Y-70549288D01*
X144423666Y-70549288D02*
X144393428Y-70609764D01*
X144393428Y-70609764D02*
X144332952Y-70670241D01*
X144332952Y-70670241D02*
X144242237Y-70700479D01*
X144242237Y-70700479D02*
X144091047Y-70700479D01*
X144726047Y-70700479D02*
X144726047Y-70065479D01*
X145028428Y-70700479D02*
X145028428Y-70065479D01*
X145028428Y-70065479D02*
X145270333Y-70065479D01*
X145270333Y-70065479D02*
X145330809Y-70095717D01*
X145330809Y-70095717D02*
X145361047Y-70125955D01*
X145361047Y-70125955D02*
X145391285Y-70186431D01*
X145391285Y-70186431D02*
X145391285Y-70277145D01*
X145391285Y-70277145D02*
X145361047Y-70337621D01*
X145361047Y-70337621D02*
X145330809Y-70367860D01*
X145330809Y-70367860D02*
X145270333Y-70398098D01*
X145270333Y-70398098D02*
X145028428Y-70398098D01*
D11*
X79978631Y-101149950D02*
X80121488Y-101197569D01*
X80121488Y-101197569D02*
X80359583Y-101197569D01*
X80359583Y-101197569D02*
X80454821Y-101149950D01*
X80454821Y-101149950D02*
X80502440Y-101102330D01*
X80502440Y-101102330D02*
X80550059Y-101007092D01*
X80550059Y-101007092D02*
X80550059Y-100911854D01*
X80550059Y-100911854D02*
X80502440Y-100816616D01*
X80502440Y-100816616D02*
X80454821Y-100768997D01*
X80454821Y-100768997D02*
X80359583Y-100721378D01*
X80359583Y-100721378D02*
X80169107Y-100673759D01*
X80169107Y-100673759D02*
X80073869Y-100626140D01*
X80073869Y-100626140D02*
X80026250Y-100578521D01*
X80026250Y-100578521D02*
X79978631Y-100483283D01*
X79978631Y-100483283D02*
X79978631Y-100388045D01*
X79978631Y-100388045D02*
X80026250Y-100292807D01*
X80026250Y-100292807D02*
X80073869Y-100245188D01*
X80073869Y-100245188D02*
X80169107Y-100197569D01*
X80169107Y-100197569D02*
X80407202Y-100197569D01*
X80407202Y-100197569D02*
X80550059Y-100245188D01*
X80883393Y-100197569D02*
X81121488Y-101197569D01*
X81121488Y-101197569D02*
X81311964Y-100483283D01*
X81311964Y-100483283D02*
X81502440Y-101197569D01*
X81502440Y-101197569D02*
X81740536Y-100197569D01*
X81883393Y-101292807D02*
X82645297Y-101292807D01*
X82883393Y-101197569D02*
X82883393Y-100197569D01*
X82883393Y-100197569D02*
X83264345Y-100197569D01*
X83264345Y-100197569D02*
X83359583Y-100245188D01*
X83359583Y-100245188D02*
X83407202Y-100292807D01*
X83407202Y-100292807D02*
X83454821Y-100388045D01*
X83454821Y-100388045D02*
X83454821Y-100530902D01*
X83454821Y-100530902D02*
X83407202Y-100626140D01*
X83407202Y-100626140D02*
X83359583Y-100673759D01*
X83359583Y-100673759D02*
X83264345Y-100721378D01*
X83264345Y-100721378D02*
X82883393Y-100721378D01*
X84311964Y-100530902D02*
X84311964Y-101197569D01*
X83883393Y-100530902D02*
X83883393Y-101054711D01*
X83883393Y-101054711D02*
X83931012Y-101149950D01*
X83931012Y-101149950D02*
X84026250Y-101197569D01*
X84026250Y-101197569D02*
X84169107Y-101197569D01*
X84169107Y-101197569D02*
X84264345Y-101149950D01*
X84264345Y-101149950D02*
X84311964Y-101102330D01*
X84740536Y-101149950D02*
X84835774Y-101197569D01*
X84835774Y-101197569D02*
X85026250Y-101197569D01*
X85026250Y-101197569D02*
X85121488Y-101149950D01*
X85121488Y-101149950D02*
X85169107Y-101054711D01*
X85169107Y-101054711D02*
X85169107Y-101007092D01*
X85169107Y-101007092D02*
X85121488Y-100911854D01*
X85121488Y-100911854D02*
X85026250Y-100864235D01*
X85026250Y-100864235D02*
X84883393Y-100864235D01*
X84883393Y-100864235D02*
X84788155Y-100816616D01*
X84788155Y-100816616D02*
X84740536Y-100721378D01*
X84740536Y-100721378D02*
X84740536Y-100673759D01*
X84740536Y-100673759D02*
X84788155Y-100578521D01*
X84788155Y-100578521D02*
X84883393Y-100530902D01*
X84883393Y-100530902D02*
X85026250Y-100530902D01*
X85026250Y-100530902D02*
X85121488Y-100578521D01*
X85597679Y-101197569D02*
X85597679Y-100197569D01*
X86026250Y-101197569D02*
X86026250Y-100673759D01*
X86026250Y-100673759D02*
X85978631Y-100578521D01*
X85978631Y-100578521D02*
X85883393Y-100530902D01*
X85883393Y-100530902D02*
X85740536Y-100530902D01*
X85740536Y-100530902D02*
X85645298Y-100578521D01*
X85645298Y-100578521D02*
X85597679Y-100626140D01*
X81692917Y-85401950D02*
X81835774Y-85449569D01*
X81835774Y-85449569D02*
X82073869Y-85449569D01*
X82073869Y-85449569D02*
X82169107Y-85401950D01*
X82169107Y-85401950D02*
X82216726Y-85354330D01*
X82216726Y-85354330D02*
X82264345Y-85259092D01*
X82264345Y-85259092D02*
X82264345Y-85163854D01*
X82264345Y-85163854D02*
X82216726Y-85068616D01*
X82216726Y-85068616D02*
X82169107Y-85020997D01*
X82169107Y-85020997D02*
X82073869Y-84973378D01*
X82073869Y-84973378D02*
X81883393Y-84925759D01*
X81883393Y-84925759D02*
X81788155Y-84878140D01*
X81788155Y-84878140D02*
X81740536Y-84830521D01*
X81740536Y-84830521D02*
X81692917Y-84735283D01*
X81692917Y-84735283D02*
X81692917Y-84640045D01*
X81692917Y-84640045D02*
X81740536Y-84544807D01*
X81740536Y-84544807D02*
X81788155Y-84497188D01*
X81788155Y-84497188D02*
X81883393Y-84449569D01*
X81883393Y-84449569D02*
X82121488Y-84449569D01*
X82121488Y-84449569D02*
X82264345Y-84497188D01*
X82597679Y-84449569D02*
X82835774Y-85449569D01*
X82835774Y-85449569D02*
X83026250Y-84735283D01*
X83026250Y-84735283D02*
X83216726Y-85449569D01*
X83216726Y-85449569D02*
X83454822Y-84449569D01*
X84264345Y-84782902D02*
X84264345Y-85449569D01*
X84026250Y-84401950D02*
X83788155Y-85116235D01*
X83788155Y-85116235D02*
X84407202Y-85116235D01*
X99028631Y-101149950D02*
X99171488Y-101197569D01*
X99171488Y-101197569D02*
X99409583Y-101197569D01*
X99409583Y-101197569D02*
X99504821Y-101149950D01*
X99504821Y-101149950D02*
X99552440Y-101102330D01*
X99552440Y-101102330D02*
X99600059Y-101007092D01*
X99600059Y-101007092D02*
X99600059Y-100911854D01*
X99600059Y-100911854D02*
X99552440Y-100816616D01*
X99552440Y-100816616D02*
X99504821Y-100768997D01*
X99504821Y-100768997D02*
X99409583Y-100721378D01*
X99409583Y-100721378D02*
X99219107Y-100673759D01*
X99219107Y-100673759D02*
X99123869Y-100626140D01*
X99123869Y-100626140D02*
X99076250Y-100578521D01*
X99076250Y-100578521D02*
X99028631Y-100483283D01*
X99028631Y-100483283D02*
X99028631Y-100388045D01*
X99028631Y-100388045D02*
X99076250Y-100292807D01*
X99076250Y-100292807D02*
X99123869Y-100245188D01*
X99123869Y-100245188D02*
X99219107Y-100197569D01*
X99219107Y-100197569D02*
X99457202Y-100197569D01*
X99457202Y-100197569D02*
X99600059Y-100245188D01*
X99933393Y-100197569D02*
X100171488Y-101197569D01*
X100171488Y-101197569D02*
X100361964Y-100483283D01*
X100361964Y-100483283D02*
X100552440Y-101197569D01*
X100552440Y-101197569D02*
X100790536Y-100197569D01*
X100933393Y-101292807D02*
X101695297Y-101292807D01*
X101933393Y-101197569D02*
X101933393Y-100197569D01*
X101933393Y-100197569D02*
X102314345Y-100197569D01*
X102314345Y-100197569D02*
X102409583Y-100245188D01*
X102409583Y-100245188D02*
X102457202Y-100292807D01*
X102457202Y-100292807D02*
X102504821Y-100388045D01*
X102504821Y-100388045D02*
X102504821Y-100530902D01*
X102504821Y-100530902D02*
X102457202Y-100626140D01*
X102457202Y-100626140D02*
X102409583Y-100673759D01*
X102409583Y-100673759D02*
X102314345Y-100721378D01*
X102314345Y-100721378D02*
X101933393Y-100721378D01*
X103361964Y-100530902D02*
X103361964Y-101197569D01*
X102933393Y-100530902D02*
X102933393Y-101054711D01*
X102933393Y-101054711D02*
X102981012Y-101149950D01*
X102981012Y-101149950D02*
X103076250Y-101197569D01*
X103076250Y-101197569D02*
X103219107Y-101197569D01*
X103219107Y-101197569D02*
X103314345Y-101149950D01*
X103314345Y-101149950D02*
X103361964Y-101102330D01*
X103790536Y-101149950D02*
X103885774Y-101197569D01*
X103885774Y-101197569D02*
X104076250Y-101197569D01*
X104076250Y-101197569D02*
X104171488Y-101149950D01*
X104171488Y-101149950D02*
X104219107Y-101054711D01*
X104219107Y-101054711D02*
X104219107Y-101007092D01*
X104219107Y-101007092D02*
X104171488Y-100911854D01*
X104171488Y-100911854D02*
X104076250Y-100864235D01*
X104076250Y-100864235D02*
X103933393Y-100864235D01*
X103933393Y-100864235D02*
X103838155Y-100816616D01*
X103838155Y-100816616D02*
X103790536Y-100721378D01*
X103790536Y-100721378D02*
X103790536Y-100673759D01*
X103790536Y-100673759D02*
X103838155Y-100578521D01*
X103838155Y-100578521D02*
X103933393Y-100530902D01*
X103933393Y-100530902D02*
X104076250Y-100530902D01*
X104076250Y-100530902D02*
X104171488Y-100578521D01*
X104647679Y-101197569D02*
X104647679Y-100197569D01*
X105076250Y-101197569D02*
X105076250Y-100673759D01*
X105076250Y-100673759D02*
X105028631Y-100578521D01*
X105028631Y-100578521D02*
X104933393Y-100530902D01*
X104933393Y-100530902D02*
X104790536Y-100530902D01*
X104790536Y-100530902D02*
X104695298Y-100578521D01*
X104695298Y-100578521D02*
X104647679Y-100626140D01*
X100742917Y-85401950D02*
X100885774Y-85449569D01*
X100885774Y-85449569D02*
X101123869Y-85449569D01*
X101123869Y-85449569D02*
X101219107Y-85401950D01*
X101219107Y-85401950D02*
X101266726Y-85354330D01*
X101266726Y-85354330D02*
X101314345Y-85259092D01*
X101314345Y-85259092D02*
X101314345Y-85163854D01*
X101314345Y-85163854D02*
X101266726Y-85068616D01*
X101266726Y-85068616D02*
X101219107Y-85020997D01*
X101219107Y-85020997D02*
X101123869Y-84973378D01*
X101123869Y-84973378D02*
X100933393Y-84925759D01*
X100933393Y-84925759D02*
X100838155Y-84878140D01*
X100838155Y-84878140D02*
X100790536Y-84830521D01*
X100790536Y-84830521D02*
X100742917Y-84735283D01*
X100742917Y-84735283D02*
X100742917Y-84640045D01*
X100742917Y-84640045D02*
X100790536Y-84544807D01*
X100790536Y-84544807D02*
X100838155Y-84497188D01*
X100838155Y-84497188D02*
X100933393Y-84449569D01*
X100933393Y-84449569D02*
X101171488Y-84449569D01*
X101171488Y-84449569D02*
X101314345Y-84497188D01*
X101647679Y-84449569D02*
X101885774Y-85449569D01*
X101885774Y-85449569D02*
X102076250Y-84735283D01*
X102076250Y-84735283D02*
X102266726Y-85449569D01*
X102266726Y-85449569D02*
X102504822Y-84449569D01*
X103314345Y-84449569D02*
X103123869Y-84449569D01*
X103123869Y-84449569D02*
X103028631Y-84497188D01*
X103028631Y-84497188D02*
X102981012Y-84544807D01*
X102981012Y-84544807D02*
X102885774Y-84687664D01*
X102885774Y-84687664D02*
X102838155Y-84878140D01*
X102838155Y-84878140D02*
X102838155Y-85259092D01*
X102838155Y-85259092D02*
X102885774Y-85354330D01*
X102885774Y-85354330D02*
X102933393Y-85401950D01*
X102933393Y-85401950D02*
X103028631Y-85449569D01*
X103028631Y-85449569D02*
X103219107Y-85449569D01*
X103219107Y-85449569D02*
X103314345Y-85401950D01*
X103314345Y-85401950D02*
X103361964Y-85354330D01*
X103361964Y-85354330D02*
X103409583Y-85259092D01*
X103409583Y-85259092D02*
X103409583Y-85020997D01*
X103409583Y-85020997D02*
X103361964Y-84925759D01*
X103361964Y-84925759D02*
X103314345Y-84878140D01*
X103314345Y-84878140D02*
X103219107Y-84830521D01*
X103219107Y-84830521D02*
X103028631Y-84830521D01*
X103028631Y-84830521D02*
X102933393Y-84878140D01*
X102933393Y-84878140D02*
X102885774Y-84925759D01*
X102885774Y-84925759D02*
X102838155Y-85020997D01*
X99028631Y-82099950D02*
X99171488Y-82147569D01*
X99171488Y-82147569D02*
X99409583Y-82147569D01*
X99409583Y-82147569D02*
X99504821Y-82099950D01*
X99504821Y-82099950D02*
X99552440Y-82052330D01*
X99552440Y-82052330D02*
X99600059Y-81957092D01*
X99600059Y-81957092D02*
X99600059Y-81861854D01*
X99600059Y-81861854D02*
X99552440Y-81766616D01*
X99552440Y-81766616D02*
X99504821Y-81718997D01*
X99504821Y-81718997D02*
X99409583Y-81671378D01*
X99409583Y-81671378D02*
X99219107Y-81623759D01*
X99219107Y-81623759D02*
X99123869Y-81576140D01*
X99123869Y-81576140D02*
X99076250Y-81528521D01*
X99076250Y-81528521D02*
X99028631Y-81433283D01*
X99028631Y-81433283D02*
X99028631Y-81338045D01*
X99028631Y-81338045D02*
X99076250Y-81242807D01*
X99076250Y-81242807D02*
X99123869Y-81195188D01*
X99123869Y-81195188D02*
X99219107Y-81147569D01*
X99219107Y-81147569D02*
X99457202Y-81147569D01*
X99457202Y-81147569D02*
X99600059Y-81195188D01*
X99933393Y-81147569D02*
X100171488Y-82147569D01*
X100171488Y-82147569D02*
X100361964Y-81433283D01*
X100361964Y-81433283D02*
X100552440Y-82147569D01*
X100552440Y-82147569D02*
X100790536Y-81147569D01*
X100933393Y-82242807D02*
X101695297Y-82242807D01*
X101933393Y-82147569D02*
X101933393Y-81147569D01*
X101933393Y-81147569D02*
X102314345Y-81147569D01*
X102314345Y-81147569D02*
X102409583Y-81195188D01*
X102409583Y-81195188D02*
X102457202Y-81242807D01*
X102457202Y-81242807D02*
X102504821Y-81338045D01*
X102504821Y-81338045D02*
X102504821Y-81480902D01*
X102504821Y-81480902D02*
X102457202Y-81576140D01*
X102457202Y-81576140D02*
X102409583Y-81623759D01*
X102409583Y-81623759D02*
X102314345Y-81671378D01*
X102314345Y-81671378D02*
X101933393Y-81671378D01*
X103361964Y-81480902D02*
X103361964Y-82147569D01*
X102933393Y-81480902D02*
X102933393Y-82004711D01*
X102933393Y-82004711D02*
X102981012Y-82099950D01*
X102981012Y-82099950D02*
X103076250Y-82147569D01*
X103076250Y-82147569D02*
X103219107Y-82147569D01*
X103219107Y-82147569D02*
X103314345Y-82099950D01*
X103314345Y-82099950D02*
X103361964Y-82052330D01*
X103790536Y-82099950D02*
X103885774Y-82147569D01*
X103885774Y-82147569D02*
X104076250Y-82147569D01*
X104076250Y-82147569D02*
X104171488Y-82099950D01*
X104171488Y-82099950D02*
X104219107Y-82004711D01*
X104219107Y-82004711D02*
X104219107Y-81957092D01*
X104219107Y-81957092D02*
X104171488Y-81861854D01*
X104171488Y-81861854D02*
X104076250Y-81814235D01*
X104076250Y-81814235D02*
X103933393Y-81814235D01*
X103933393Y-81814235D02*
X103838155Y-81766616D01*
X103838155Y-81766616D02*
X103790536Y-81671378D01*
X103790536Y-81671378D02*
X103790536Y-81623759D01*
X103790536Y-81623759D02*
X103838155Y-81528521D01*
X103838155Y-81528521D02*
X103933393Y-81480902D01*
X103933393Y-81480902D02*
X104076250Y-81480902D01*
X104076250Y-81480902D02*
X104171488Y-81528521D01*
X104647679Y-82147569D02*
X104647679Y-81147569D01*
X105076250Y-82147569D02*
X105076250Y-81623759D01*
X105076250Y-81623759D02*
X105028631Y-81528521D01*
X105028631Y-81528521D02*
X104933393Y-81480902D01*
X104933393Y-81480902D02*
X104790536Y-81480902D01*
X104790536Y-81480902D02*
X104695298Y-81528521D01*
X104695298Y-81528521D02*
X104647679Y-81576140D01*
X100742917Y-66351950D02*
X100885774Y-66399569D01*
X100885774Y-66399569D02*
X101123869Y-66399569D01*
X101123869Y-66399569D02*
X101219107Y-66351950D01*
X101219107Y-66351950D02*
X101266726Y-66304330D01*
X101266726Y-66304330D02*
X101314345Y-66209092D01*
X101314345Y-66209092D02*
X101314345Y-66113854D01*
X101314345Y-66113854D02*
X101266726Y-66018616D01*
X101266726Y-66018616D02*
X101219107Y-65970997D01*
X101219107Y-65970997D02*
X101123869Y-65923378D01*
X101123869Y-65923378D02*
X100933393Y-65875759D01*
X100933393Y-65875759D02*
X100838155Y-65828140D01*
X100838155Y-65828140D02*
X100790536Y-65780521D01*
X100790536Y-65780521D02*
X100742917Y-65685283D01*
X100742917Y-65685283D02*
X100742917Y-65590045D01*
X100742917Y-65590045D02*
X100790536Y-65494807D01*
X100790536Y-65494807D02*
X100838155Y-65447188D01*
X100838155Y-65447188D02*
X100933393Y-65399569D01*
X100933393Y-65399569D02*
X101171488Y-65399569D01*
X101171488Y-65399569D02*
X101314345Y-65447188D01*
X101647679Y-65399569D02*
X101885774Y-66399569D01*
X101885774Y-66399569D02*
X102076250Y-65685283D01*
X102076250Y-65685283D02*
X102266726Y-66399569D01*
X102266726Y-66399569D02*
X102504822Y-65399569D01*
X102838155Y-65494807D02*
X102885774Y-65447188D01*
X102885774Y-65447188D02*
X102981012Y-65399569D01*
X102981012Y-65399569D02*
X103219107Y-65399569D01*
X103219107Y-65399569D02*
X103314345Y-65447188D01*
X103314345Y-65447188D02*
X103361964Y-65494807D01*
X103361964Y-65494807D02*
X103409583Y-65590045D01*
X103409583Y-65590045D02*
X103409583Y-65685283D01*
X103409583Y-65685283D02*
X103361964Y-65828140D01*
X103361964Y-65828140D02*
X102790536Y-66399569D01*
X102790536Y-66399569D02*
X103409583Y-66399569D01*
X79978631Y-82099950D02*
X80121488Y-82147569D01*
X80121488Y-82147569D02*
X80359583Y-82147569D01*
X80359583Y-82147569D02*
X80454821Y-82099950D01*
X80454821Y-82099950D02*
X80502440Y-82052330D01*
X80502440Y-82052330D02*
X80550059Y-81957092D01*
X80550059Y-81957092D02*
X80550059Y-81861854D01*
X80550059Y-81861854D02*
X80502440Y-81766616D01*
X80502440Y-81766616D02*
X80454821Y-81718997D01*
X80454821Y-81718997D02*
X80359583Y-81671378D01*
X80359583Y-81671378D02*
X80169107Y-81623759D01*
X80169107Y-81623759D02*
X80073869Y-81576140D01*
X80073869Y-81576140D02*
X80026250Y-81528521D01*
X80026250Y-81528521D02*
X79978631Y-81433283D01*
X79978631Y-81433283D02*
X79978631Y-81338045D01*
X79978631Y-81338045D02*
X80026250Y-81242807D01*
X80026250Y-81242807D02*
X80073869Y-81195188D01*
X80073869Y-81195188D02*
X80169107Y-81147569D01*
X80169107Y-81147569D02*
X80407202Y-81147569D01*
X80407202Y-81147569D02*
X80550059Y-81195188D01*
X80883393Y-81147569D02*
X81121488Y-82147569D01*
X81121488Y-82147569D02*
X81311964Y-81433283D01*
X81311964Y-81433283D02*
X81502440Y-82147569D01*
X81502440Y-82147569D02*
X81740536Y-81147569D01*
X81883393Y-82242807D02*
X82645297Y-82242807D01*
X82883393Y-82147569D02*
X82883393Y-81147569D01*
X82883393Y-81147569D02*
X83264345Y-81147569D01*
X83264345Y-81147569D02*
X83359583Y-81195188D01*
X83359583Y-81195188D02*
X83407202Y-81242807D01*
X83407202Y-81242807D02*
X83454821Y-81338045D01*
X83454821Y-81338045D02*
X83454821Y-81480902D01*
X83454821Y-81480902D02*
X83407202Y-81576140D01*
X83407202Y-81576140D02*
X83359583Y-81623759D01*
X83359583Y-81623759D02*
X83264345Y-81671378D01*
X83264345Y-81671378D02*
X82883393Y-81671378D01*
X84311964Y-81480902D02*
X84311964Y-82147569D01*
X83883393Y-81480902D02*
X83883393Y-82004711D01*
X83883393Y-82004711D02*
X83931012Y-82099950D01*
X83931012Y-82099950D02*
X84026250Y-82147569D01*
X84026250Y-82147569D02*
X84169107Y-82147569D01*
X84169107Y-82147569D02*
X84264345Y-82099950D01*
X84264345Y-82099950D02*
X84311964Y-82052330D01*
X84740536Y-82099950D02*
X84835774Y-82147569D01*
X84835774Y-82147569D02*
X85026250Y-82147569D01*
X85026250Y-82147569D02*
X85121488Y-82099950D01*
X85121488Y-82099950D02*
X85169107Y-82004711D01*
X85169107Y-82004711D02*
X85169107Y-81957092D01*
X85169107Y-81957092D02*
X85121488Y-81861854D01*
X85121488Y-81861854D02*
X85026250Y-81814235D01*
X85026250Y-81814235D02*
X84883393Y-81814235D01*
X84883393Y-81814235D02*
X84788155Y-81766616D01*
X84788155Y-81766616D02*
X84740536Y-81671378D01*
X84740536Y-81671378D02*
X84740536Y-81623759D01*
X84740536Y-81623759D02*
X84788155Y-81528521D01*
X84788155Y-81528521D02*
X84883393Y-81480902D01*
X84883393Y-81480902D02*
X85026250Y-81480902D01*
X85026250Y-81480902D02*
X85121488Y-81528521D01*
X85597679Y-82147569D02*
X85597679Y-81147569D01*
X86026250Y-82147569D02*
X86026250Y-81623759D01*
X86026250Y-81623759D02*
X85978631Y-81528521D01*
X85978631Y-81528521D02*
X85883393Y-81480902D01*
X85883393Y-81480902D02*
X85740536Y-81480902D01*
X85740536Y-81480902D02*
X85645298Y-81528521D01*
X85645298Y-81528521D02*
X85597679Y-81576140D01*
X81692917Y-66351950D02*
X81835774Y-66399569D01*
X81835774Y-66399569D02*
X82073869Y-66399569D01*
X82073869Y-66399569D02*
X82169107Y-66351950D01*
X82169107Y-66351950D02*
X82216726Y-66304330D01*
X82216726Y-66304330D02*
X82264345Y-66209092D01*
X82264345Y-66209092D02*
X82264345Y-66113854D01*
X82264345Y-66113854D02*
X82216726Y-66018616D01*
X82216726Y-66018616D02*
X82169107Y-65970997D01*
X82169107Y-65970997D02*
X82073869Y-65923378D01*
X82073869Y-65923378D02*
X81883393Y-65875759D01*
X81883393Y-65875759D02*
X81788155Y-65828140D01*
X81788155Y-65828140D02*
X81740536Y-65780521D01*
X81740536Y-65780521D02*
X81692917Y-65685283D01*
X81692917Y-65685283D02*
X81692917Y-65590045D01*
X81692917Y-65590045D02*
X81740536Y-65494807D01*
X81740536Y-65494807D02*
X81788155Y-65447188D01*
X81788155Y-65447188D02*
X81883393Y-65399569D01*
X81883393Y-65399569D02*
X82121488Y-65399569D01*
X82121488Y-65399569D02*
X82264345Y-65447188D01*
X82597679Y-65399569D02*
X82835774Y-66399569D01*
X82835774Y-66399569D02*
X83026250Y-65685283D01*
X83026250Y-65685283D02*
X83216726Y-66399569D01*
X83216726Y-66399569D02*
X83454822Y-65399569D01*
X84359583Y-66399569D02*
X83788155Y-66399569D01*
X84073869Y-66399569D02*
X84073869Y-65399569D01*
X84073869Y-65399569D02*
X83978631Y-65542426D01*
X83978631Y-65542426D02*
X83883393Y-65637664D01*
X83883393Y-65637664D02*
X83788155Y-65685283D01*
X118078631Y-82099950D02*
X118221488Y-82147569D01*
X118221488Y-82147569D02*
X118459583Y-82147569D01*
X118459583Y-82147569D02*
X118554821Y-82099950D01*
X118554821Y-82099950D02*
X118602440Y-82052330D01*
X118602440Y-82052330D02*
X118650059Y-81957092D01*
X118650059Y-81957092D02*
X118650059Y-81861854D01*
X118650059Y-81861854D02*
X118602440Y-81766616D01*
X118602440Y-81766616D02*
X118554821Y-81718997D01*
X118554821Y-81718997D02*
X118459583Y-81671378D01*
X118459583Y-81671378D02*
X118269107Y-81623759D01*
X118269107Y-81623759D02*
X118173869Y-81576140D01*
X118173869Y-81576140D02*
X118126250Y-81528521D01*
X118126250Y-81528521D02*
X118078631Y-81433283D01*
X118078631Y-81433283D02*
X118078631Y-81338045D01*
X118078631Y-81338045D02*
X118126250Y-81242807D01*
X118126250Y-81242807D02*
X118173869Y-81195188D01*
X118173869Y-81195188D02*
X118269107Y-81147569D01*
X118269107Y-81147569D02*
X118507202Y-81147569D01*
X118507202Y-81147569D02*
X118650059Y-81195188D01*
X118983393Y-81147569D02*
X119221488Y-82147569D01*
X119221488Y-82147569D02*
X119411964Y-81433283D01*
X119411964Y-81433283D02*
X119602440Y-82147569D01*
X119602440Y-82147569D02*
X119840536Y-81147569D01*
X119983393Y-82242807D02*
X120745297Y-82242807D01*
X120983393Y-82147569D02*
X120983393Y-81147569D01*
X120983393Y-81147569D02*
X121364345Y-81147569D01*
X121364345Y-81147569D02*
X121459583Y-81195188D01*
X121459583Y-81195188D02*
X121507202Y-81242807D01*
X121507202Y-81242807D02*
X121554821Y-81338045D01*
X121554821Y-81338045D02*
X121554821Y-81480902D01*
X121554821Y-81480902D02*
X121507202Y-81576140D01*
X121507202Y-81576140D02*
X121459583Y-81623759D01*
X121459583Y-81623759D02*
X121364345Y-81671378D01*
X121364345Y-81671378D02*
X120983393Y-81671378D01*
X122411964Y-81480902D02*
X122411964Y-82147569D01*
X121983393Y-81480902D02*
X121983393Y-82004711D01*
X121983393Y-82004711D02*
X122031012Y-82099950D01*
X122031012Y-82099950D02*
X122126250Y-82147569D01*
X122126250Y-82147569D02*
X122269107Y-82147569D01*
X122269107Y-82147569D02*
X122364345Y-82099950D01*
X122364345Y-82099950D02*
X122411964Y-82052330D01*
X122840536Y-82099950D02*
X122935774Y-82147569D01*
X122935774Y-82147569D02*
X123126250Y-82147569D01*
X123126250Y-82147569D02*
X123221488Y-82099950D01*
X123221488Y-82099950D02*
X123269107Y-82004711D01*
X123269107Y-82004711D02*
X123269107Y-81957092D01*
X123269107Y-81957092D02*
X123221488Y-81861854D01*
X123221488Y-81861854D02*
X123126250Y-81814235D01*
X123126250Y-81814235D02*
X122983393Y-81814235D01*
X122983393Y-81814235D02*
X122888155Y-81766616D01*
X122888155Y-81766616D02*
X122840536Y-81671378D01*
X122840536Y-81671378D02*
X122840536Y-81623759D01*
X122840536Y-81623759D02*
X122888155Y-81528521D01*
X122888155Y-81528521D02*
X122983393Y-81480902D01*
X122983393Y-81480902D02*
X123126250Y-81480902D01*
X123126250Y-81480902D02*
X123221488Y-81528521D01*
X123697679Y-82147569D02*
X123697679Y-81147569D01*
X124126250Y-82147569D02*
X124126250Y-81623759D01*
X124126250Y-81623759D02*
X124078631Y-81528521D01*
X124078631Y-81528521D02*
X123983393Y-81480902D01*
X123983393Y-81480902D02*
X123840536Y-81480902D01*
X123840536Y-81480902D02*
X123745298Y-81528521D01*
X123745298Y-81528521D02*
X123697679Y-81576140D01*
X119792917Y-66351950D02*
X119935774Y-66399569D01*
X119935774Y-66399569D02*
X120173869Y-66399569D01*
X120173869Y-66399569D02*
X120269107Y-66351950D01*
X120269107Y-66351950D02*
X120316726Y-66304330D01*
X120316726Y-66304330D02*
X120364345Y-66209092D01*
X120364345Y-66209092D02*
X120364345Y-66113854D01*
X120364345Y-66113854D02*
X120316726Y-66018616D01*
X120316726Y-66018616D02*
X120269107Y-65970997D01*
X120269107Y-65970997D02*
X120173869Y-65923378D01*
X120173869Y-65923378D02*
X119983393Y-65875759D01*
X119983393Y-65875759D02*
X119888155Y-65828140D01*
X119888155Y-65828140D02*
X119840536Y-65780521D01*
X119840536Y-65780521D02*
X119792917Y-65685283D01*
X119792917Y-65685283D02*
X119792917Y-65590045D01*
X119792917Y-65590045D02*
X119840536Y-65494807D01*
X119840536Y-65494807D02*
X119888155Y-65447188D01*
X119888155Y-65447188D02*
X119983393Y-65399569D01*
X119983393Y-65399569D02*
X120221488Y-65399569D01*
X120221488Y-65399569D02*
X120364345Y-65447188D01*
X120697679Y-65399569D02*
X120935774Y-66399569D01*
X120935774Y-66399569D02*
X121126250Y-65685283D01*
X121126250Y-65685283D02*
X121316726Y-66399569D01*
X121316726Y-66399569D02*
X121554822Y-65399569D01*
X121840536Y-65399569D02*
X122459583Y-65399569D01*
X122459583Y-65399569D02*
X122126250Y-65780521D01*
X122126250Y-65780521D02*
X122269107Y-65780521D01*
X122269107Y-65780521D02*
X122364345Y-65828140D01*
X122364345Y-65828140D02*
X122411964Y-65875759D01*
X122411964Y-65875759D02*
X122459583Y-65970997D01*
X122459583Y-65970997D02*
X122459583Y-66209092D01*
X122459583Y-66209092D02*
X122411964Y-66304330D01*
X122411964Y-66304330D02*
X122364345Y-66351950D01*
X122364345Y-66351950D02*
X122269107Y-66399569D01*
X122269107Y-66399569D02*
X121983393Y-66399569D01*
X121983393Y-66399569D02*
X121888155Y-66351950D01*
X121888155Y-66351950D02*
X121840536Y-66304330D01*
X135946129Y-101223569D02*
X135612796Y-100747378D01*
X135374701Y-101223569D02*
X135374701Y-100223569D01*
X135374701Y-100223569D02*
X135755653Y-100223569D01*
X135755653Y-100223569D02*
X135850891Y-100271188D01*
X135850891Y-100271188D02*
X135898510Y-100318807D01*
X135898510Y-100318807D02*
X135946129Y-100414045D01*
X135946129Y-100414045D02*
X135946129Y-100556902D01*
X135946129Y-100556902D02*
X135898510Y-100652140D01*
X135898510Y-100652140D02*
X135850891Y-100699759D01*
X135850891Y-100699759D02*
X135755653Y-100747378D01*
X135755653Y-100747378D02*
X135374701Y-100747378D01*
X136517558Y-101223569D02*
X136422320Y-101175950D01*
X136422320Y-101175950D02*
X136374701Y-101128330D01*
X136374701Y-101128330D02*
X136327082Y-101033092D01*
X136327082Y-101033092D02*
X136327082Y-100747378D01*
X136327082Y-100747378D02*
X136374701Y-100652140D01*
X136374701Y-100652140D02*
X136422320Y-100604521D01*
X136422320Y-100604521D02*
X136517558Y-100556902D01*
X136517558Y-100556902D02*
X136660415Y-100556902D01*
X136660415Y-100556902D02*
X136755653Y-100604521D01*
X136755653Y-100604521D02*
X136803272Y-100652140D01*
X136803272Y-100652140D02*
X136850891Y-100747378D01*
X136850891Y-100747378D02*
X136850891Y-101033092D01*
X136850891Y-101033092D02*
X136803272Y-101128330D01*
X136803272Y-101128330D02*
X136755653Y-101175950D01*
X136755653Y-101175950D02*
X136660415Y-101223569D01*
X136660415Y-101223569D02*
X136517558Y-101223569D01*
X137136606Y-100556902D02*
X137517558Y-100556902D01*
X137279463Y-100223569D02*
X137279463Y-101080711D01*
X137279463Y-101080711D02*
X137327082Y-101175950D01*
X137327082Y-101175950D02*
X137422320Y-101223569D01*
X137422320Y-101223569D02*
X137517558Y-101223569D01*
X138279463Y-101223569D02*
X138279463Y-100699759D01*
X138279463Y-100699759D02*
X138231844Y-100604521D01*
X138231844Y-100604521D02*
X138136606Y-100556902D01*
X138136606Y-100556902D02*
X137946130Y-100556902D01*
X137946130Y-100556902D02*
X137850892Y-100604521D01*
X138279463Y-101175950D02*
X138184225Y-101223569D01*
X138184225Y-101223569D02*
X137946130Y-101223569D01*
X137946130Y-101223569D02*
X137850892Y-101175950D01*
X137850892Y-101175950D02*
X137803273Y-101080711D01*
X137803273Y-101080711D02*
X137803273Y-100985473D01*
X137803273Y-100985473D02*
X137850892Y-100890235D01*
X137850892Y-100890235D02*
X137946130Y-100842616D01*
X137946130Y-100842616D02*
X138184225Y-100842616D01*
X138184225Y-100842616D02*
X138279463Y-100794997D01*
X138755654Y-101223569D02*
X138755654Y-100556902D01*
X138755654Y-100747378D02*
X138803273Y-100652140D01*
X138803273Y-100652140D02*
X138850892Y-100604521D01*
X138850892Y-100604521D02*
X138946130Y-100556902D01*
X138946130Y-100556902D02*
X139041368Y-100556902D01*
X139279464Y-100556902D02*
X139517559Y-101223569D01*
X139755654Y-100556902D02*
X139517559Y-101223569D01*
X139517559Y-101223569D02*
X139422321Y-101461664D01*
X139422321Y-101461664D02*
X139374702Y-101509283D01*
X139374702Y-101509283D02*
X139279464Y-101556902D01*
X140136607Y-100699759D02*
X140469940Y-100699759D01*
X140612797Y-101223569D02*
X140136607Y-101223569D01*
X140136607Y-101223569D02*
X140136607Y-100223569D01*
X140136607Y-100223569D02*
X140612797Y-100223569D01*
X141041369Y-100556902D02*
X141041369Y-101223569D01*
X141041369Y-100652140D02*
X141088988Y-100604521D01*
X141088988Y-100604521D02*
X141184226Y-100556902D01*
X141184226Y-100556902D02*
X141327083Y-100556902D01*
X141327083Y-100556902D02*
X141422321Y-100604521D01*
X141422321Y-100604521D02*
X141469940Y-100699759D01*
X141469940Y-100699759D02*
X141469940Y-101223569D01*
X142374702Y-101175950D02*
X142279464Y-101223569D01*
X142279464Y-101223569D02*
X142088988Y-101223569D01*
X142088988Y-101223569D02*
X141993750Y-101175950D01*
X141993750Y-101175950D02*
X141946131Y-101128330D01*
X141946131Y-101128330D02*
X141898512Y-101033092D01*
X141898512Y-101033092D02*
X141898512Y-100747378D01*
X141898512Y-100747378D02*
X141946131Y-100652140D01*
X141946131Y-100652140D02*
X141993750Y-100604521D01*
X141993750Y-100604521D02*
X142088988Y-100556902D01*
X142088988Y-100556902D02*
X142279464Y-100556902D01*
X142279464Y-100556902D02*
X142374702Y-100604521D01*
X142946131Y-101223569D02*
X142850893Y-101175950D01*
X142850893Y-101175950D02*
X142803274Y-101128330D01*
X142803274Y-101128330D02*
X142755655Y-101033092D01*
X142755655Y-101033092D02*
X142755655Y-100747378D01*
X142755655Y-100747378D02*
X142803274Y-100652140D01*
X142803274Y-100652140D02*
X142850893Y-100604521D01*
X142850893Y-100604521D02*
X142946131Y-100556902D01*
X142946131Y-100556902D02*
X143088988Y-100556902D01*
X143088988Y-100556902D02*
X143184226Y-100604521D01*
X143184226Y-100604521D02*
X143231845Y-100652140D01*
X143231845Y-100652140D02*
X143279464Y-100747378D01*
X143279464Y-100747378D02*
X143279464Y-101033092D01*
X143279464Y-101033092D02*
X143231845Y-101128330D01*
X143231845Y-101128330D02*
X143184226Y-101175950D01*
X143184226Y-101175950D02*
X143088988Y-101223569D01*
X143088988Y-101223569D02*
X142946131Y-101223569D01*
X144136607Y-101223569D02*
X144136607Y-100223569D01*
X144136607Y-101175950D02*
X144041369Y-101223569D01*
X144041369Y-101223569D02*
X143850893Y-101223569D01*
X143850893Y-101223569D02*
X143755655Y-101175950D01*
X143755655Y-101175950D02*
X143708036Y-101128330D01*
X143708036Y-101128330D02*
X143660417Y-101033092D01*
X143660417Y-101033092D02*
X143660417Y-100747378D01*
X143660417Y-100747378D02*
X143708036Y-100652140D01*
X143708036Y-100652140D02*
X143755655Y-100604521D01*
X143755655Y-100604521D02*
X143850893Y-100556902D01*
X143850893Y-100556902D02*
X144041369Y-100556902D01*
X144041369Y-100556902D02*
X144136607Y-100604521D01*
X144993750Y-101175950D02*
X144898512Y-101223569D01*
X144898512Y-101223569D02*
X144708036Y-101223569D01*
X144708036Y-101223569D02*
X144612798Y-101175950D01*
X144612798Y-101175950D02*
X144565179Y-101080711D01*
X144565179Y-101080711D02*
X144565179Y-100699759D01*
X144565179Y-100699759D02*
X144612798Y-100604521D01*
X144612798Y-100604521D02*
X144708036Y-100556902D01*
X144708036Y-100556902D02*
X144898512Y-100556902D01*
X144898512Y-100556902D02*
X144993750Y-100604521D01*
X144993750Y-100604521D02*
X145041369Y-100699759D01*
X145041369Y-100699759D02*
X145041369Y-100794997D01*
X145041369Y-100794997D02*
X144565179Y-100890235D01*
X145469941Y-101223569D02*
X145469941Y-100556902D01*
X145469941Y-100747378D02*
X145517560Y-100652140D01*
X145517560Y-100652140D02*
X145565179Y-100604521D01*
X145565179Y-100604521D02*
X145660417Y-100556902D01*
X145660417Y-100556902D02*
X145755655Y-100556902D01*
X142760417Y-97075950D02*
X142903274Y-97123569D01*
X142903274Y-97123569D02*
X143141369Y-97123569D01*
X143141369Y-97123569D02*
X143236607Y-97075950D01*
X143236607Y-97075950D02*
X143284226Y-97028330D01*
X143284226Y-97028330D02*
X143331845Y-96933092D01*
X143331845Y-96933092D02*
X143331845Y-96837854D01*
X143331845Y-96837854D02*
X143284226Y-96742616D01*
X143284226Y-96742616D02*
X143236607Y-96694997D01*
X143236607Y-96694997D02*
X143141369Y-96647378D01*
X143141369Y-96647378D02*
X142950893Y-96599759D01*
X142950893Y-96599759D02*
X142855655Y-96552140D01*
X142855655Y-96552140D02*
X142808036Y-96504521D01*
X142808036Y-96504521D02*
X142760417Y-96409283D01*
X142760417Y-96409283D02*
X142760417Y-96314045D01*
X142760417Y-96314045D02*
X142808036Y-96218807D01*
X142808036Y-96218807D02*
X142855655Y-96171188D01*
X142855655Y-96171188D02*
X142950893Y-96123569D01*
X142950893Y-96123569D02*
X143188988Y-96123569D01*
X143188988Y-96123569D02*
X143331845Y-96171188D01*
X143665179Y-96123569D02*
X143903274Y-97123569D01*
X143903274Y-97123569D02*
X144093750Y-96409283D01*
X144093750Y-96409283D02*
X144284226Y-97123569D01*
X144284226Y-97123569D02*
X144522322Y-96123569D01*
X144808036Y-96123569D02*
X145474702Y-96123569D01*
X145474702Y-96123569D02*
X145046131Y-97123569D01*
X118078631Y-101149950D02*
X118221488Y-101197569D01*
X118221488Y-101197569D02*
X118459583Y-101197569D01*
X118459583Y-101197569D02*
X118554821Y-101149950D01*
X118554821Y-101149950D02*
X118602440Y-101102330D01*
X118602440Y-101102330D02*
X118650059Y-101007092D01*
X118650059Y-101007092D02*
X118650059Y-100911854D01*
X118650059Y-100911854D02*
X118602440Y-100816616D01*
X118602440Y-100816616D02*
X118554821Y-100768997D01*
X118554821Y-100768997D02*
X118459583Y-100721378D01*
X118459583Y-100721378D02*
X118269107Y-100673759D01*
X118269107Y-100673759D02*
X118173869Y-100626140D01*
X118173869Y-100626140D02*
X118126250Y-100578521D01*
X118126250Y-100578521D02*
X118078631Y-100483283D01*
X118078631Y-100483283D02*
X118078631Y-100388045D01*
X118078631Y-100388045D02*
X118126250Y-100292807D01*
X118126250Y-100292807D02*
X118173869Y-100245188D01*
X118173869Y-100245188D02*
X118269107Y-100197569D01*
X118269107Y-100197569D02*
X118507202Y-100197569D01*
X118507202Y-100197569D02*
X118650059Y-100245188D01*
X118983393Y-100197569D02*
X119221488Y-101197569D01*
X119221488Y-101197569D02*
X119411964Y-100483283D01*
X119411964Y-100483283D02*
X119602440Y-101197569D01*
X119602440Y-101197569D02*
X119840536Y-100197569D01*
X119983393Y-101292807D02*
X120745297Y-101292807D01*
X120983393Y-101197569D02*
X120983393Y-100197569D01*
X120983393Y-100197569D02*
X121364345Y-100197569D01*
X121364345Y-100197569D02*
X121459583Y-100245188D01*
X121459583Y-100245188D02*
X121507202Y-100292807D01*
X121507202Y-100292807D02*
X121554821Y-100388045D01*
X121554821Y-100388045D02*
X121554821Y-100530902D01*
X121554821Y-100530902D02*
X121507202Y-100626140D01*
X121507202Y-100626140D02*
X121459583Y-100673759D01*
X121459583Y-100673759D02*
X121364345Y-100721378D01*
X121364345Y-100721378D02*
X120983393Y-100721378D01*
X122411964Y-100530902D02*
X122411964Y-101197569D01*
X121983393Y-100530902D02*
X121983393Y-101054711D01*
X121983393Y-101054711D02*
X122031012Y-101149950D01*
X122031012Y-101149950D02*
X122126250Y-101197569D01*
X122126250Y-101197569D02*
X122269107Y-101197569D01*
X122269107Y-101197569D02*
X122364345Y-101149950D01*
X122364345Y-101149950D02*
X122411964Y-101102330D01*
X122840536Y-101149950D02*
X122935774Y-101197569D01*
X122935774Y-101197569D02*
X123126250Y-101197569D01*
X123126250Y-101197569D02*
X123221488Y-101149950D01*
X123221488Y-101149950D02*
X123269107Y-101054711D01*
X123269107Y-101054711D02*
X123269107Y-101007092D01*
X123269107Y-101007092D02*
X123221488Y-100911854D01*
X123221488Y-100911854D02*
X123126250Y-100864235D01*
X123126250Y-100864235D02*
X122983393Y-100864235D01*
X122983393Y-100864235D02*
X122888155Y-100816616D01*
X122888155Y-100816616D02*
X122840536Y-100721378D01*
X122840536Y-100721378D02*
X122840536Y-100673759D01*
X122840536Y-100673759D02*
X122888155Y-100578521D01*
X122888155Y-100578521D02*
X122983393Y-100530902D01*
X122983393Y-100530902D02*
X123126250Y-100530902D01*
X123126250Y-100530902D02*
X123221488Y-100578521D01*
X123697679Y-101197569D02*
X123697679Y-100197569D01*
X124126250Y-101197569D02*
X124126250Y-100673759D01*
X124126250Y-100673759D02*
X124078631Y-100578521D01*
X124078631Y-100578521D02*
X123983393Y-100530902D01*
X123983393Y-100530902D02*
X123840536Y-100530902D01*
X123840536Y-100530902D02*
X123745298Y-100578521D01*
X123745298Y-100578521D02*
X123697679Y-100626140D01*
X119792917Y-85401950D02*
X119935774Y-85449569D01*
X119935774Y-85449569D02*
X120173869Y-85449569D01*
X120173869Y-85449569D02*
X120269107Y-85401950D01*
X120269107Y-85401950D02*
X120316726Y-85354330D01*
X120316726Y-85354330D02*
X120364345Y-85259092D01*
X120364345Y-85259092D02*
X120364345Y-85163854D01*
X120364345Y-85163854D02*
X120316726Y-85068616D01*
X120316726Y-85068616D02*
X120269107Y-85020997D01*
X120269107Y-85020997D02*
X120173869Y-84973378D01*
X120173869Y-84973378D02*
X119983393Y-84925759D01*
X119983393Y-84925759D02*
X119888155Y-84878140D01*
X119888155Y-84878140D02*
X119840536Y-84830521D01*
X119840536Y-84830521D02*
X119792917Y-84735283D01*
X119792917Y-84735283D02*
X119792917Y-84640045D01*
X119792917Y-84640045D02*
X119840536Y-84544807D01*
X119840536Y-84544807D02*
X119888155Y-84497188D01*
X119888155Y-84497188D02*
X119983393Y-84449569D01*
X119983393Y-84449569D02*
X120221488Y-84449569D01*
X120221488Y-84449569D02*
X120364345Y-84497188D01*
X120697679Y-84449569D02*
X120935774Y-85449569D01*
X120935774Y-85449569D02*
X121126250Y-84735283D01*
X121126250Y-84735283D02*
X121316726Y-85449569D01*
X121316726Y-85449569D02*
X121554822Y-84449569D01*
X122411964Y-84449569D02*
X121935774Y-84449569D01*
X121935774Y-84449569D02*
X121888155Y-84925759D01*
X121888155Y-84925759D02*
X121935774Y-84878140D01*
X121935774Y-84878140D02*
X122031012Y-84830521D01*
X122031012Y-84830521D02*
X122269107Y-84830521D01*
X122269107Y-84830521D02*
X122364345Y-84878140D01*
X122364345Y-84878140D02*
X122411964Y-84925759D01*
X122411964Y-84925759D02*
X122459583Y-85020997D01*
X122459583Y-85020997D02*
X122459583Y-85259092D01*
X122459583Y-85259092D02*
X122411964Y-85354330D01*
X122411964Y-85354330D02*
X122364345Y-85401950D01*
X122364345Y-85401950D02*
X122269107Y-85449569D01*
X122269107Y-85449569D02*
X122031012Y-85449569D01*
X122031012Y-85449569D02*
X121935774Y-85401950D01*
X121935774Y-85401950D02*
X121888155Y-85354330D01*
%TO.C,U1*%
D12*
X133586000Y-63640000D02*
G75*
G02*
X133082000Y-63640000I-252000J0D01*
G01*
X133082000Y-63640000D02*
G75*
G02*
X133586000Y-63640000I252000J0D01*
G01*
D13*
X132250000Y-62540000D02*
X150050000Y-62540000D01*
X150050000Y-83540000D01*
X132250000Y-83540000D01*
X132250000Y-62540000D01*
%TO.C,SW4*%
X76676250Y-86518750D02*
X89376250Y-86518750D01*
X76676250Y-99218750D02*
X76676250Y-86518750D01*
X89376250Y-86518750D02*
X89376250Y-99218750D01*
X89376250Y-99218750D02*
X76676250Y-99218750D01*
%TO.C,SW6*%
X95726250Y-86518750D02*
X108426250Y-86518750D01*
X95726250Y-99218750D02*
X95726250Y-86518750D01*
X108426250Y-86518750D02*
X108426250Y-99218750D01*
X108426250Y-99218750D02*
X95726250Y-99218750D01*
%TO.C,SW2*%
X95726250Y-67468750D02*
X108426250Y-67468750D01*
X95726250Y-80168750D02*
X95726250Y-67468750D01*
X108426250Y-67468750D02*
X108426250Y-80168750D01*
X108426250Y-80168750D02*
X95726250Y-80168750D01*
%TO.C,SW1*%
X76676250Y-67468750D02*
X89376250Y-67468750D01*
X76676250Y-80168750D02*
X76676250Y-67468750D01*
X89376250Y-67468750D02*
X89376250Y-80168750D01*
X89376250Y-80168750D02*
X76676250Y-80168750D01*
%TO.C,SW3*%
X114776250Y-67468750D02*
X127476250Y-67468750D01*
X114776250Y-80168750D02*
X114776250Y-67468750D01*
X127476250Y-67468750D02*
X127476250Y-80168750D01*
X127476250Y-80168750D02*
X114776250Y-80168750D01*
%TO.C,SW7*%
X134493750Y-88168750D02*
X135493750Y-87068750D01*
X134493750Y-98668750D02*
X134493750Y-88168750D01*
X135493750Y-87068750D02*
X146493750Y-87068750D01*
X137493750Y-92868750D02*
X143493750Y-92868750D01*
X140493750Y-89868750D02*
X140493750Y-95868750D01*
X146493750Y-87068750D02*
X146493750Y-98668750D01*
X146493750Y-98668750D02*
X134493750Y-98668750D01*
X143493750Y-92868750D02*
G75*
G02*
X137493750Y-92868750I-3000000J0D01*
G01*
X137493750Y-92868750D02*
G75*
G02*
X143493750Y-92868750I3000000J0D01*
G01*
%TO.C,SW5*%
X114776250Y-86518750D02*
X127476250Y-86518750D01*
X114776250Y-99218750D02*
X114776250Y-86518750D01*
X127476250Y-86518750D02*
X127476250Y-99218750D01*
X127476250Y-99218750D02*
X114776250Y-99218750D01*
%TD*%
M02*
