%TF.GenerationSoftware,KiCad,Pcbnew,9.0.6*%
%TF.CreationDate,2026-01-09T13:31:14-03:00*%
%TF.ProjectId,KeyFlow Board,4b657946-6c6f-4772-9042-6f6172642e6b,rev?*%
%TF.SameCoordinates,Original*%
%TF.FileFunction,OtherDrawing,Comment*%
%FSLAX46Y46*%
G04 Gerber Fmt 4.6, Leading zero omitted, Abs format (unit mm)*
G04 Created by KiCad (PCBNEW 9.0.6) date 2026-01-09 13:31:14*
%MOMM*%
%LPD*%
G01*
G04 APERTURE LIST*
%ADD10C,0.150000*%
G04 APERTURE END LIST*
D10*
%TO.C,SW4*%
X73501250Y-83343750D02*
X92551250Y-83343750D01*
X73501250Y-102393750D02*
X73501250Y-83343750D01*
X92551250Y-83343750D02*
X92551250Y-102393750D01*
X92551250Y-102393750D02*
X73501250Y-102393750D01*
%TO.C,SW6*%
X92551250Y-83343750D02*
X111601250Y-83343750D01*
X92551250Y-102393750D02*
X92551250Y-83343750D01*
X111601250Y-83343750D02*
X111601250Y-102393750D01*
X111601250Y-102393750D02*
X92551250Y-102393750D01*
%TO.C,SW2*%
X92551250Y-64293750D02*
X111601250Y-64293750D01*
X92551250Y-83343750D02*
X92551250Y-64293750D01*
X111601250Y-64293750D02*
X111601250Y-83343750D01*
X111601250Y-83343750D02*
X92551250Y-83343750D01*
%TO.C,SW1*%
X73501250Y-64293750D02*
X92551250Y-64293750D01*
X73501250Y-83343750D02*
X73501250Y-64293750D01*
X92551250Y-64293750D02*
X92551250Y-83343750D01*
X92551250Y-83343750D02*
X73501250Y-83343750D01*
%TO.C,SW3*%
X111601250Y-64293750D02*
X130651250Y-64293750D01*
X111601250Y-83343750D02*
X111601250Y-64293750D01*
X130651250Y-64293750D02*
X130651250Y-83343750D01*
X130651250Y-83343750D02*
X111601250Y-83343750D01*
%TO.C,SW5*%
X111601250Y-83343750D02*
X130651250Y-83343750D01*
X111601250Y-102393750D02*
X111601250Y-83343750D01*
X130651250Y-83343750D02*
X130651250Y-102393750D01*
X130651250Y-102393750D02*
X111601250Y-102393750D01*
%TD*%
M02*
