%TF.GenerationSoftware,KiCad,Pcbnew,9.0.6*%
%TF.CreationDate,2026-01-09T13:31:14-03:00*%
%TF.ProjectId,KeyFlow Board,4b657946-6c6f-4772-9042-6f6172642e6b,rev?*%
%TF.SameCoordinates,Original*%
%TF.FileFunction,Legend,Top*%
%TF.FilePolarity,Positive*%
%FSLAX46Y46*%
G04 Gerber Fmt 4.6, Leading zero omitted, Abs format (unit mm)*
G04 Created by KiCad (PCBNEW 9.0.6) date 2026-01-09 13:31:14*
%MOMM*%
%LPD*%
G01*
G04 APERTURE LIST*
%ADD10C,0.200000*%
%ADD11C,0.100000*%
%ADD12C,0.106680*%
%ADD13C,0.150000*%
%ADD14C,0.504000*%
%ADD15C,0.127000*%
%ADD16C,0.120000*%
G04 APERTURE END LIST*
D10*
X100261904Y-63729457D02*
X100261904Y-62829457D01*
X100833332Y-63729457D02*
X100404761Y-63215171D01*
X100833332Y-62829457D02*
X100261904Y-63343742D01*
X101642856Y-63686600D02*
X101547618Y-63729457D01*
X101547618Y-63729457D02*
X101357142Y-63729457D01*
X101357142Y-63729457D02*
X101261904Y-63686600D01*
X101261904Y-63686600D02*
X101214285Y-63600885D01*
X101214285Y-63600885D02*
X101214285Y-63258028D01*
X101214285Y-63258028D02*
X101261904Y-63172314D01*
X101261904Y-63172314D02*
X101357142Y-63129457D01*
X101357142Y-63129457D02*
X101547618Y-63129457D01*
X101547618Y-63129457D02*
X101642856Y-63172314D01*
X101642856Y-63172314D02*
X101690475Y-63258028D01*
X101690475Y-63258028D02*
X101690475Y-63343742D01*
X101690475Y-63343742D02*
X101214285Y-63429457D01*
X102023809Y-63129457D02*
X102261904Y-63729457D01*
X102499999Y-63129457D02*
X102261904Y-63729457D01*
X102261904Y-63729457D02*
X102166666Y-63943742D01*
X102166666Y-63943742D02*
X102119047Y-63986600D01*
X102119047Y-63986600D02*
X102023809Y-64029457D01*
X103214285Y-63258028D02*
X102880952Y-63258028D01*
X102880952Y-63729457D02*
X102880952Y-62829457D01*
X102880952Y-62829457D02*
X103357142Y-62829457D01*
X103880952Y-63729457D02*
X103785714Y-63686600D01*
X103785714Y-63686600D02*
X103738095Y-63600885D01*
X103738095Y-63600885D02*
X103738095Y-62829457D01*
X104404762Y-63729457D02*
X104309524Y-63686600D01*
X104309524Y-63686600D02*
X104261905Y-63643742D01*
X104261905Y-63643742D02*
X104214286Y-63558028D01*
X104214286Y-63558028D02*
X104214286Y-63300885D01*
X104214286Y-63300885D02*
X104261905Y-63215171D01*
X104261905Y-63215171D02*
X104309524Y-63172314D01*
X104309524Y-63172314D02*
X104404762Y-63129457D01*
X104404762Y-63129457D02*
X104547619Y-63129457D01*
X104547619Y-63129457D02*
X104642857Y-63172314D01*
X104642857Y-63172314D02*
X104690476Y-63215171D01*
X104690476Y-63215171D02*
X104738095Y-63300885D01*
X104738095Y-63300885D02*
X104738095Y-63558028D01*
X104738095Y-63558028D02*
X104690476Y-63643742D01*
X104690476Y-63643742D02*
X104642857Y-63686600D01*
X104642857Y-63686600D02*
X104547619Y-63729457D01*
X104547619Y-63729457D02*
X104404762Y-63729457D01*
X105071429Y-63129457D02*
X105261905Y-63729457D01*
X105261905Y-63729457D02*
X105452381Y-63300885D01*
X105452381Y-63300885D02*
X105642857Y-63729457D01*
X105642857Y-63729457D02*
X105833333Y-63129457D01*
D11*
X137208646Y-74372419D02*
X137875312Y-75372419D01*
X137875312Y-74372419D02*
X137208646Y-75372419D01*
X138256265Y-75372419D02*
X138256265Y-74372419D01*
X138684836Y-75086704D02*
X139161026Y-75086704D01*
X138589598Y-75372419D02*
X138922931Y-74372419D01*
X138922931Y-74372419D02*
X139256264Y-75372419D01*
X139780074Y-74372419D02*
X139970550Y-74372419D01*
X139970550Y-74372419D02*
X140065788Y-74420038D01*
X140065788Y-74420038D02*
X140161026Y-74515276D01*
X140161026Y-74515276D02*
X140208645Y-74705752D01*
X140208645Y-74705752D02*
X140208645Y-75039085D01*
X140208645Y-75039085D02*
X140161026Y-75229561D01*
X140161026Y-75229561D02*
X140065788Y-75324800D01*
X140065788Y-75324800D02*
X139970550Y-75372419D01*
X139970550Y-75372419D02*
X139780074Y-75372419D01*
X139780074Y-75372419D02*
X139684836Y-75324800D01*
X139684836Y-75324800D02*
X139589598Y-75229561D01*
X139589598Y-75229561D02*
X139541979Y-75039085D01*
X139541979Y-75039085D02*
X139541979Y-74705752D01*
X139541979Y-74705752D02*
X139589598Y-74515276D01*
X139589598Y-74515276D02*
X139684836Y-74420038D01*
X139684836Y-74420038D02*
X139780074Y-74372419D01*
X141399122Y-75372419D02*
X141399122Y-74372419D01*
X141399122Y-74848609D02*
X141970550Y-74848609D01*
X141970550Y-75372419D02*
X141970550Y-74372419D01*
X142446741Y-74848609D02*
X142780074Y-74848609D01*
X142922931Y-75372419D02*
X142446741Y-75372419D01*
X142446741Y-75372419D02*
X142446741Y-74372419D01*
X142446741Y-74372419D02*
X142922931Y-74372419D01*
X143922931Y-75372419D02*
X143589598Y-74896228D01*
X143351503Y-75372419D02*
X143351503Y-74372419D01*
X143351503Y-74372419D02*
X143732455Y-74372419D01*
X143732455Y-74372419D02*
X143827693Y-74420038D01*
X143827693Y-74420038D02*
X143875312Y-74467657D01*
X143875312Y-74467657D02*
X143922931Y-74562895D01*
X143922931Y-74562895D02*
X143922931Y-74705752D01*
X143922931Y-74705752D02*
X143875312Y-74800990D01*
X143875312Y-74800990D02*
X143827693Y-74848609D01*
X143827693Y-74848609D02*
X143732455Y-74896228D01*
X143732455Y-74896228D02*
X143351503Y-74896228D01*
X144351503Y-74848609D02*
X144684836Y-74848609D01*
X144827693Y-75372419D02*
X144351503Y-75372419D01*
X144351503Y-75372419D02*
X144351503Y-74372419D01*
X144351503Y-74372419D02*
X144827693Y-74372419D01*
D12*
X132006450Y-60656391D02*
X132006450Y-61289698D01*
X132006450Y-61289698D02*
X132043704Y-61364204D01*
X132043704Y-61364204D02*
X132080957Y-61401458D01*
X132080957Y-61401458D02*
X132155464Y-61438711D01*
X132155464Y-61438711D02*
X132304477Y-61438711D01*
X132304477Y-61438711D02*
X132378984Y-61401458D01*
X132378984Y-61401458D02*
X132416237Y-61364204D01*
X132416237Y-61364204D02*
X132453490Y-61289698D01*
X132453490Y-61289698D02*
X132453490Y-60656391D01*
X133235810Y-61438711D02*
X132788770Y-61438711D01*
X133012290Y-61438711D02*
X133012290Y-60656391D01*
X133012290Y-60656391D02*
X132937783Y-60768151D01*
X132937783Y-60768151D02*
X132863277Y-60842658D01*
X132863277Y-60842658D02*
X132788770Y-60879911D01*
D13*
X81692917Y-85401950D02*
X81835774Y-85449569D01*
X81835774Y-85449569D02*
X82073869Y-85449569D01*
X82073869Y-85449569D02*
X82169107Y-85401950D01*
X82169107Y-85401950D02*
X82216726Y-85354330D01*
X82216726Y-85354330D02*
X82264345Y-85259092D01*
X82264345Y-85259092D02*
X82264345Y-85163854D01*
X82264345Y-85163854D02*
X82216726Y-85068616D01*
X82216726Y-85068616D02*
X82169107Y-85020997D01*
X82169107Y-85020997D02*
X82073869Y-84973378D01*
X82073869Y-84973378D02*
X81883393Y-84925759D01*
X81883393Y-84925759D02*
X81788155Y-84878140D01*
X81788155Y-84878140D02*
X81740536Y-84830521D01*
X81740536Y-84830521D02*
X81692917Y-84735283D01*
X81692917Y-84735283D02*
X81692917Y-84640045D01*
X81692917Y-84640045D02*
X81740536Y-84544807D01*
X81740536Y-84544807D02*
X81788155Y-84497188D01*
X81788155Y-84497188D02*
X81883393Y-84449569D01*
X81883393Y-84449569D02*
X82121488Y-84449569D01*
X82121488Y-84449569D02*
X82264345Y-84497188D01*
X82597679Y-84449569D02*
X82835774Y-85449569D01*
X82835774Y-85449569D02*
X83026250Y-84735283D01*
X83026250Y-84735283D02*
X83216726Y-85449569D01*
X83216726Y-85449569D02*
X83454822Y-84449569D01*
X84264345Y-84782902D02*
X84264345Y-85449569D01*
X84026250Y-84401950D02*
X83788155Y-85116235D01*
X83788155Y-85116235D02*
X84407202Y-85116235D01*
X100742917Y-85401950D02*
X100885774Y-85449569D01*
X100885774Y-85449569D02*
X101123869Y-85449569D01*
X101123869Y-85449569D02*
X101219107Y-85401950D01*
X101219107Y-85401950D02*
X101266726Y-85354330D01*
X101266726Y-85354330D02*
X101314345Y-85259092D01*
X101314345Y-85259092D02*
X101314345Y-85163854D01*
X101314345Y-85163854D02*
X101266726Y-85068616D01*
X101266726Y-85068616D02*
X101219107Y-85020997D01*
X101219107Y-85020997D02*
X101123869Y-84973378D01*
X101123869Y-84973378D02*
X100933393Y-84925759D01*
X100933393Y-84925759D02*
X100838155Y-84878140D01*
X100838155Y-84878140D02*
X100790536Y-84830521D01*
X100790536Y-84830521D02*
X100742917Y-84735283D01*
X100742917Y-84735283D02*
X100742917Y-84640045D01*
X100742917Y-84640045D02*
X100790536Y-84544807D01*
X100790536Y-84544807D02*
X100838155Y-84497188D01*
X100838155Y-84497188D02*
X100933393Y-84449569D01*
X100933393Y-84449569D02*
X101171488Y-84449569D01*
X101171488Y-84449569D02*
X101314345Y-84497188D01*
X101647679Y-84449569D02*
X101885774Y-85449569D01*
X101885774Y-85449569D02*
X102076250Y-84735283D01*
X102076250Y-84735283D02*
X102266726Y-85449569D01*
X102266726Y-85449569D02*
X102504822Y-84449569D01*
X103314345Y-84449569D02*
X103123869Y-84449569D01*
X103123869Y-84449569D02*
X103028631Y-84497188D01*
X103028631Y-84497188D02*
X102981012Y-84544807D01*
X102981012Y-84544807D02*
X102885774Y-84687664D01*
X102885774Y-84687664D02*
X102838155Y-84878140D01*
X102838155Y-84878140D02*
X102838155Y-85259092D01*
X102838155Y-85259092D02*
X102885774Y-85354330D01*
X102885774Y-85354330D02*
X102933393Y-85401950D01*
X102933393Y-85401950D02*
X103028631Y-85449569D01*
X103028631Y-85449569D02*
X103219107Y-85449569D01*
X103219107Y-85449569D02*
X103314345Y-85401950D01*
X103314345Y-85401950D02*
X103361964Y-85354330D01*
X103361964Y-85354330D02*
X103409583Y-85259092D01*
X103409583Y-85259092D02*
X103409583Y-85020997D01*
X103409583Y-85020997D02*
X103361964Y-84925759D01*
X103361964Y-84925759D02*
X103314345Y-84878140D01*
X103314345Y-84878140D02*
X103219107Y-84830521D01*
X103219107Y-84830521D02*
X103028631Y-84830521D01*
X103028631Y-84830521D02*
X102933393Y-84878140D01*
X102933393Y-84878140D02*
X102885774Y-84925759D01*
X102885774Y-84925759D02*
X102838155Y-85020997D01*
X100742917Y-66351950D02*
X100885774Y-66399569D01*
X100885774Y-66399569D02*
X101123869Y-66399569D01*
X101123869Y-66399569D02*
X101219107Y-66351950D01*
X101219107Y-66351950D02*
X101266726Y-66304330D01*
X101266726Y-66304330D02*
X101314345Y-66209092D01*
X101314345Y-66209092D02*
X101314345Y-66113854D01*
X101314345Y-66113854D02*
X101266726Y-66018616D01*
X101266726Y-66018616D02*
X101219107Y-65970997D01*
X101219107Y-65970997D02*
X101123869Y-65923378D01*
X101123869Y-65923378D02*
X100933393Y-65875759D01*
X100933393Y-65875759D02*
X100838155Y-65828140D01*
X100838155Y-65828140D02*
X100790536Y-65780521D01*
X100790536Y-65780521D02*
X100742917Y-65685283D01*
X100742917Y-65685283D02*
X100742917Y-65590045D01*
X100742917Y-65590045D02*
X100790536Y-65494807D01*
X100790536Y-65494807D02*
X100838155Y-65447188D01*
X100838155Y-65447188D02*
X100933393Y-65399569D01*
X100933393Y-65399569D02*
X101171488Y-65399569D01*
X101171488Y-65399569D02*
X101314345Y-65447188D01*
X101647679Y-65399569D02*
X101885774Y-66399569D01*
X101885774Y-66399569D02*
X102076250Y-65685283D01*
X102076250Y-65685283D02*
X102266726Y-66399569D01*
X102266726Y-66399569D02*
X102504822Y-65399569D01*
X102838155Y-65494807D02*
X102885774Y-65447188D01*
X102885774Y-65447188D02*
X102981012Y-65399569D01*
X102981012Y-65399569D02*
X103219107Y-65399569D01*
X103219107Y-65399569D02*
X103314345Y-65447188D01*
X103314345Y-65447188D02*
X103361964Y-65494807D01*
X103361964Y-65494807D02*
X103409583Y-65590045D01*
X103409583Y-65590045D02*
X103409583Y-65685283D01*
X103409583Y-65685283D02*
X103361964Y-65828140D01*
X103361964Y-65828140D02*
X102790536Y-66399569D01*
X102790536Y-66399569D02*
X103409583Y-66399569D01*
X81692917Y-66351950D02*
X81835774Y-66399569D01*
X81835774Y-66399569D02*
X82073869Y-66399569D01*
X82073869Y-66399569D02*
X82169107Y-66351950D01*
X82169107Y-66351950D02*
X82216726Y-66304330D01*
X82216726Y-66304330D02*
X82264345Y-66209092D01*
X82264345Y-66209092D02*
X82264345Y-66113854D01*
X82264345Y-66113854D02*
X82216726Y-66018616D01*
X82216726Y-66018616D02*
X82169107Y-65970997D01*
X82169107Y-65970997D02*
X82073869Y-65923378D01*
X82073869Y-65923378D02*
X81883393Y-65875759D01*
X81883393Y-65875759D02*
X81788155Y-65828140D01*
X81788155Y-65828140D02*
X81740536Y-65780521D01*
X81740536Y-65780521D02*
X81692917Y-65685283D01*
X81692917Y-65685283D02*
X81692917Y-65590045D01*
X81692917Y-65590045D02*
X81740536Y-65494807D01*
X81740536Y-65494807D02*
X81788155Y-65447188D01*
X81788155Y-65447188D02*
X81883393Y-65399569D01*
X81883393Y-65399569D02*
X82121488Y-65399569D01*
X82121488Y-65399569D02*
X82264345Y-65447188D01*
X82597679Y-65399569D02*
X82835774Y-66399569D01*
X82835774Y-66399569D02*
X83026250Y-65685283D01*
X83026250Y-65685283D02*
X83216726Y-66399569D01*
X83216726Y-66399569D02*
X83454822Y-65399569D01*
X84359583Y-66399569D02*
X83788155Y-66399569D01*
X84073869Y-66399569D02*
X84073869Y-65399569D01*
X84073869Y-65399569D02*
X83978631Y-65542426D01*
X83978631Y-65542426D02*
X83883393Y-65637664D01*
X83883393Y-65637664D02*
X83788155Y-65685283D01*
X119792917Y-66351950D02*
X119935774Y-66399569D01*
X119935774Y-66399569D02*
X120173869Y-66399569D01*
X120173869Y-66399569D02*
X120269107Y-66351950D01*
X120269107Y-66351950D02*
X120316726Y-66304330D01*
X120316726Y-66304330D02*
X120364345Y-66209092D01*
X120364345Y-66209092D02*
X120364345Y-66113854D01*
X120364345Y-66113854D02*
X120316726Y-66018616D01*
X120316726Y-66018616D02*
X120269107Y-65970997D01*
X120269107Y-65970997D02*
X120173869Y-65923378D01*
X120173869Y-65923378D02*
X119983393Y-65875759D01*
X119983393Y-65875759D02*
X119888155Y-65828140D01*
X119888155Y-65828140D02*
X119840536Y-65780521D01*
X119840536Y-65780521D02*
X119792917Y-65685283D01*
X119792917Y-65685283D02*
X119792917Y-65590045D01*
X119792917Y-65590045D02*
X119840536Y-65494807D01*
X119840536Y-65494807D02*
X119888155Y-65447188D01*
X119888155Y-65447188D02*
X119983393Y-65399569D01*
X119983393Y-65399569D02*
X120221488Y-65399569D01*
X120221488Y-65399569D02*
X120364345Y-65447188D01*
X120697679Y-65399569D02*
X120935774Y-66399569D01*
X120935774Y-66399569D02*
X121126250Y-65685283D01*
X121126250Y-65685283D02*
X121316726Y-66399569D01*
X121316726Y-66399569D02*
X121554822Y-65399569D01*
X121840536Y-65399569D02*
X122459583Y-65399569D01*
X122459583Y-65399569D02*
X122126250Y-65780521D01*
X122126250Y-65780521D02*
X122269107Y-65780521D01*
X122269107Y-65780521D02*
X122364345Y-65828140D01*
X122364345Y-65828140D02*
X122411964Y-65875759D01*
X122411964Y-65875759D02*
X122459583Y-65970997D01*
X122459583Y-65970997D02*
X122459583Y-66209092D01*
X122459583Y-66209092D02*
X122411964Y-66304330D01*
X122411964Y-66304330D02*
X122364345Y-66351950D01*
X122364345Y-66351950D02*
X122269107Y-66399569D01*
X122269107Y-66399569D02*
X121983393Y-66399569D01*
X121983393Y-66399569D02*
X121888155Y-66351950D01*
X121888155Y-66351950D02*
X121840536Y-66304330D01*
X134460417Y-86075950D02*
X134603274Y-86123569D01*
X134603274Y-86123569D02*
X134841369Y-86123569D01*
X134841369Y-86123569D02*
X134936607Y-86075950D01*
X134936607Y-86075950D02*
X134984226Y-86028330D01*
X134984226Y-86028330D02*
X135031845Y-85933092D01*
X135031845Y-85933092D02*
X135031845Y-85837854D01*
X135031845Y-85837854D02*
X134984226Y-85742616D01*
X134984226Y-85742616D02*
X134936607Y-85694997D01*
X134936607Y-85694997D02*
X134841369Y-85647378D01*
X134841369Y-85647378D02*
X134650893Y-85599759D01*
X134650893Y-85599759D02*
X134555655Y-85552140D01*
X134555655Y-85552140D02*
X134508036Y-85504521D01*
X134508036Y-85504521D02*
X134460417Y-85409283D01*
X134460417Y-85409283D02*
X134460417Y-85314045D01*
X134460417Y-85314045D02*
X134508036Y-85218807D01*
X134508036Y-85218807D02*
X134555655Y-85171188D01*
X134555655Y-85171188D02*
X134650893Y-85123569D01*
X134650893Y-85123569D02*
X134888988Y-85123569D01*
X134888988Y-85123569D02*
X135031845Y-85171188D01*
X135365179Y-85123569D02*
X135603274Y-86123569D01*
X135603274Y-86123569D02*
X135793750Y-85409283D01*
X135793750Y-85409283D02*
X135984226Y-86123569D01*
X135984226Y-86123569D02*
X136222322Y-85123569D01*
X136508036Y-85123569D02*
X137174702Y-85123569D01*
X137174702Y-85123569D02*
X136746131Y-86123569D01*
X119792917Y-85401950D02*
X119935774Y-85449569D01*
X119935774Y-85449569D02*
X120173869Y-85449569D01*
X120173869Y-85449569D02*
X120269107Y-85401950D01*
X120269107Y-85401950D02*
X120316726Y-85354330D01*
X120316726Y-85354330D02*
X120364345Y-85259092D01*
X120364345Y-85259092D02*
X120364345Y-85163854D01*
X120364345Y-85163854D02*
X120316726Y-85068616D01*
X120316726Y-85068616D02*
X120269107Y-85020997D01*
X120269107Y-85020997D02*
X120173869Y-84973378D01*
X120173869Y-84973378D02*
X119983393Y-84925759D01*
X119983393Y-84925759D02*
X119888155Y-84878140D01*
X119888155Y-84878140D02*
X119840536Y-84830521D01*
X119840536Y-84830521D02*
X119792917Y-84735283D01*
X119792917Y-84735283D02*
X119792917Y-84640045D01*
X119792917Y-84640045D02*
X119840536Y-84544807D01*
X119840536Y-84544807D02*
X119888155Y-84497188D01*
X119888155Y-84497188D02*
X119983393Y-84449569D01*
X119983393Y-84449569D02*
X120221488Y-84449569D01*
X120221488Y-84449569D02*
X120364345Y-84497188D01*
X120697679Y-84449569D02*
X120935774Y-85449569D01*
X120935774Y-85449569D02*
X121126250Y-84735283D01*
X121126250Y-84735283D02*
X121316726Y-85449569D01*
X121316726Y-85449569D02*
X121554822Y-84449569D01*
X122411964Y-84449569D02*
X121935774Y-84449569D01*
X121935774Y-84449569D02*
X121888155Y-84925759D01*
X121888155Y-84925759D02*
X121935774Y-84878140D01*
X121935774Y-84878140D02*
X122031012Y-84830521D01*
X122031012Y-84830521D02*
X122269107Y-84830521D01*
X122269107Y-84830521D02*
X122364345Y-84878140D01*
X122364345Y-84878140D02*
X122411964Y-84925759D01*
X122411964Y-84925759D02*
X122459583Y-85020997D01*
X122459583Y-85020997D02*
X122459583Y-85259092D01*
X122459583Y-85259092D02*
X122411964Y-85354330D01*
X122411964Y-85354330D02*
X122364345Y-85401950D01*
X122364345Y-85401950D02*
X122269107Y-85449569D01*
X122269107Y-85449569D02*
X122031012Y-85449569D01*
X122031012Y-85449569D02*
X121935774Y-85401950D01*
X121935774Y-85401950D02*
X121888155Y-85354330D01*
%TO.C,U1*%
D14*
X133566000Y-63636000D02*
G75*
G02*
X133062000Y-63636000I-252000J0D01*
G01*
X133062000Y-63636000D02*
G75*
G02*
X133566000Y-63636000I252000J0D01*
G01*
X132292000Y-62919000D02*
G75*
G02*
X131788000Y-62919000I-252000J0D01*
G01*
X131788000Y-62919000D02*
G75*
G02*
X132292000Y-62919000I252000J0D01*
G01*
D11*
X150030000Y-81553000D02*
G75*
G02*
X148125000Y-83458000I-1905000J0D01*
G01*
X148125000Y-62503000D02*
G75*
G02*
X150030000Y-64408000I0J-1905000D01*
G01*
D15*
X145144000Y-61093000D02*
G75*
G02*
X145644000Y-61593000I0J-500000D01*
G01*
X136648728Y-61592728D02*
G75*
G02*
X137148728Y-61093001I500018J-291D01*
G01*
D11*
X134155000Y-83458000D02*
G75*
G02*
X132250000Y-81553000I1J1905001D01*
G01*
X132250000Y-64404000D02*
G75*
G02*
X134155000Y-62499000I1905001J-1D01*
G01*
X150030000Y-81553000D02*
X150030000Y-64408000D01*
X148125000Y-62503000D02*
X134155000Y-62503000D01*
D15*
X145644000Y-61593000D02*
X145644000Y-62503000D01*
X137148728Y-61093000D02*
X145144000Y-61093000D01*
X136645000Y-62503000D02*
X136648728Y-61592728D01*
D11*
X134155000Y-83458000D02*
X148125000Y-83458000D01*
X132250000Y-81553000D02*
X132250000Y-64408000D01*
D16*
%TO.C,SW4*%
X76041250Y-85883750D02*
X90011250Y-85883750D01*
X76041250Y-99853750D02*
X76041250Y-85883750D01*
X90011250Y-85883750D02*
X90011250Y-99853750D01*
X90011250Y-99853750D02*
X76041250Y-99853750D01*
%TO.C,SW6*%
X95091250Y-85883750D02*
X109061250Y-85883750D01*
X95091250Y-99853750D02*
X95091250Y-85883750D01*
X109061250Y-85883750D02*
X109061250Y-99853750D01*
X109061250Y-99853750D02*
X95091250Y-99853750D01*
%TO.C,SW2*%
X95091250Y-66833750D02*
X109061250Y-66833750D01*
X95091250Y-80803750D02*
X95091250Y-66833750D01*
X109061250Y-66833750D02*
X109061250Y-80803750D01*
X109061250Y-80803750D02*
X95091250Y-80803750D01*
%TO.C,SW1*%
X76041250Y-66833750D02*
X90011250Y-66833750D01*
X76041250Y-80803750D02*
X76041250Y-66833750D01*
X90011250Y-66833750D02*
X90011250Y-80803750D01*
X90011250Y-80803750D02*
X76041250Y-80803750D01*
%TO.C,SW3*%
X114141250Y-66833750D02*
X128111250Y-66833750D01*
X114141250Y-80803750D02*
X114141250Y-66833750D01*
X128111250Y-66833750D02*
X128111250Y-80803750D01*
X128111250Y-80803750D02*
X114141250Y-80803750D01*
%TO.C,SW7*%
X132693750Y-88768750D02*
X133293750Y-88768750D01*
X132993750Y-89068750D02*
X132693750Y-88768750D01*
X133293750Y-88768750D02*
X132993750Y-89068750D01*
X134393750Y-86968750D02*
X134393750Y-98768750D01*
X138493750Y-86968750D02*
X134393750Y-86968750D01*
X138493750Y-98768750D02*
X134393750Y-98768750D01*
X142493750Y-86968750D02*
X146593750Y-86968750D01*
X146593750Y-86968750D02*
X146593750Y-89368750D01*
X146593750Y-91568750D02*
X146593750Y-94168750D01*
X146593750Y-96368750D02*
X146593750Y-98768750D01*
X146593750Y-98768750D02*
X142493750Y-98768750D01*
X143493750Y-92868750D02*
G75*
G02*
X137493750Y-92868750I-3000000J0D01*
G01*
X137493750Y-92868750D02*
G75*
G02*
X143493750Y-92868750I3000000J0D01*
G01*
%TO.C,SW5*%
X114141250Y-85883750D02*
X128111250Y-85883750D01*
X114141250Y-99853750D02*
X114141250Y-85883750D01*
X128111250Y-85883750D02*
X128111250Y-99853750D01*
X128111250Y-99853750D02*
X114141250Y-99853750D01*
%TD*%
M02*
