%TF.GenerationSoftware,KiCad,Pcbnew,9.0.6*%
%TF.CreationDate,2026-01-09T13:31:14-03:00*%
%TF.ProjectId,KeyFlow Board,4b657946-6c6f-4772-9042-6f6172642e6b,rev?*%
%TF.SameCoordinates,Original*%
%TF.FileFunction,Soldermask,Top*%
%TF.FilePolarity,Negative*%
%FSLAX46Y46*%
G04 Gerber Fmt 4.6, Leading zero omitted, Abs format (unit mm)*
G04 Created by KiCad (PCBNEW 9.0.6) date 2026-01-09 13:31:14*
%MOMM*%
%LPD*%
G01*
G04 APERTURE LIST*
G04 Aperture macros list*
%AMRoundRect*
0 Rectangle with rounded corners*
0 $1 Rounding radius*
0 $2 $3 $4 $5 $6 $7 $8 $9 X,Y pos of 4 corners*
0 Add a 4 corners polygon primitive as box body*
4,1,4,$2,$3,$4,$5,$6,$7,$8,$9,$2,$3,0*
0 Add four circle primitives for the rounded corners*
1,1,$1+$1,$2,$3*
1,1,$1+$1,$4,$5*
1,1,$1+$1,$6,$7*
1,1,$1+$1,$8,$9*
0 Add four rect primitives between the rounded corners*
20,1,$1+$1,$2,$3,$4,$5,0*
20,1,$1+$1,$4,$5,$6,$7,0*
20,1,$1+$1,$6,$7,$8,$9,0*
20,1,$1+$1,$8,$9,$2,$3,0*%
G04 Aperture macros list end*
%ADD10C,1.700000*%
%ADD11RoundRect,0.275000X-0.275000X0.975000X-0.275000X-0.975000X0.275000X-0.975000X0.275000X0.975000X0*%
%ADD12RoundRect,0.525400X-0.900400X-0.525400X0.900400X-0.525400X0.900400X0.525400X-0.900400X0.525400X0*%
%ADD13C,4.000000*%
%ADD14C,2.200000*%
%ADD15O,2.200000X1.600000*%
%ADD16C,2.100000*%
%ADD17R,2.000000X2.000000*%
%ADD18C,2.000000*%
%ADD19R,3.200000X2.000000*%
G04 APERTURE END LIST*
D10*
%TO.C,U1*%
X142537000Y-67202000D03*
X139997000Y-67202000D03*
X142537000Y-64662000D03*
X139997000Y-64662000D03*
D11*
X142537000Y-81680000D03*
X139997000Y-81680000D03*
D12*
X149250000Y-65420000D03*
X149250000Y-67960000D03*
X149250000Y-70500000D03*
X149250000Y-73040000D03*
X149250000Y-75580000D03*
X149250000Y-78120000D03*
X149250000Y-80660000D03*
X133085000Y-80660000D03*
X133085000Y-78120000D03*
X133085000Y-75580000D03*
X133085000Y-73040000D03*
X133085000Y-70500000D03*
X133085000Y-67960000D03*
X133085000Y-65420000D03*
%TD*%
D10*
%TO.C,SW4*%
X77946250Y-92868750D03*
D13*
X83026250Y-92868750D03*
D10*
X88106250Y-92868750D03*
D14*
X85566250Y-87788750D03*
X79216250Y-90328750D03*
%TD*%
D10*
%TO.C,SW6*%
X96996250Y-92868750D03*
D13*
X102076250Y-92868750D03*
D10*
X107156250Y-92868750D03*
D14*
X104616250Y-87788750D03*
X98266250Y-90328750D03*
%TD*%
D10*
%TO.C,SW2*%
X96996250Y-73818750D03*
D13*
X102076250Y-73818750D03*
D10*
X107156250Y-73818750D03*
D14*
X104616250Y-68738750D03*
X98266250Y-71278750D03*
%TD*%
D10*
%TO.C,SW1*%
X77946250Y-73818750D03*
D13*
X83026250Y-73818750D03*
D10*
X88106250Y-73818750D03*
D14*
X85566250Y-68738750D03*
X79216250Y-71278750D03*
%TD*%
D10*
%TO.C,SW3*%
X116046250Y-73818750D03*
D13*
X121126250Y-73818750D03*
D10*
X126206250Y-73818750D03*
D14*
X123666250Y-68738750D03*
X117316250Y-71278750D03*
%TD*%
D15*
%TO.C,SW7*%
X135993750Y-92868750D03*
D16*
X140493750Y-92868750D03*
D17*
X132993750Y-90368750D03*
D18*
X132993750Y-95368750D03*
X132993750Y-92868750D03*
D19*
X140493750Y-87268750D03*
X140493750Y-98468750D03*
D18*
X147493750Y-95368750D03*
X147493750Y-90368750D03*
%TD*%
D10*
%TO.C,SW5*%
X116046250Y-92868750D03*
D13*
X121126250Y-92868750D03*
D10*
X126206250Y-92868750D03*
D14*
X123666250Y-87788750D03*
X117316250Y-90328750D03*
%TD*%
M02*
